<?xml version="1.0" encoding="UTF-8"?>
<svg id="Calque_1" data-name="Calque 1" xmlns="http://www.w3.org/2000/svg" xmlns:xlink="http://www.w3.org/1999/xlink" version="1.1" viewBox="0 0 177.6 182.1">
  <defs>
    <style>
      .cls-1 {
        fill: url(#linear-gradient);
      }

      .cls-1, .cls-2 {
        stroke-width: 0px;
      }

      .cls-2 {
        fill: #0d0c0c;
      }
    </style>
    <linearGradient id="linear-gradient" x1="13.2" y1="151.5" x2="19.8" y2="151.5" gradientTransform="translate(0 181.9) scale(1 -1)" gradientUnits="userSpaceOnUse">
      <stop offset="0" stop-color="#26a2b7"/>
      <stop offset="1" stop-color="#22c55e"/>
    </linearGradient>
  </defs>
  <g>
    <g>
      <g>
        <path class="cls-2" d="M19,26.3c0,0,.2,0,.3-.1,1-.9,2.4-1.4,3.8-1.4s2.5.4,3.5,1.2c.5.4,1.3.4,1.8,0,.6-.6.6-1.6-.1-2.1-1.5-1.1-3.3-1.7-5.2-1.7-2.9,0-5.5,1.4-7,3.6-.2.3,0,.6.3.6h2.6Z"/>
        <path class="cls-2" d="M35.1,27.8c-.5-.5-1.4-.5-1.9,0-.3.3-.8.9-1.7,2.1-1.4,1.7-3.7,4.7-4.6,5.4-.9.7-2,1.4-3.7,1.4s-3.3-.7-4.4-1.9c0,0-.2-.1-.3-.1h-2.4c-.3,0-.5.3-.4.6,1.5,2.5,4.3,4.2,7.4,4.2s4.3-1.1,5.4-2c1.1-.9,2.9-3.1,5-5.8.6-.8,1.3-1.7,1.5-1.9.5-.5.5-1.4,0-1.9h0Z"/>
      </g>
      <circle class="cls-1" cx="16.5" cy="30.4" r="3.3"/>
    </g>
    <g>
      <path class="cls-2" d="M40.8,35.1c0,0-.2,0-.3.1-1,.9-2.4,1.4-3.8,1.4s-2.5-.4-3.5-1.2c-.5-.4-1.3-.4-1.8,0-.6.6-.6,1.6.1,2.1,1.5,1.1,3.3,1.7,5.2,1.7,2.9,0,5.5-1.4,7-3.6.2-.3,0-.6-.3-.6h-2.6Z"/>
      <path class="cls-2" d="M24.8,33.6c.5.5,1.4.5,1.9,0,.3-.3.8-.9,1.7-2.1,1.4-1.7,3.7-4.7,4.6-5.4.9-.7,2-1.4,3.7-1.4s3.3.7,4.4,1.9c0,0,.2.1.3.1h2.4c.3,0,.5-.3.4-.6-1.5-2.5-4.3-4.2-7.4-4.2s-4.3,1.1-5.4,2c-1.1.9-2.9,3.1-5,5.8-.6.8-1.3,1.7-1.5,1.9-.5.5-.5,1.4,0,1.9h0Z"/>
    </g>
  </g>
  <g>
    <path class="cls-2" d="M16.5,44.5c-.2-.2-.3-.3-.5-.4-.2,0-.4-.1-.5-.1-.3,0-.5,0-.7.3-.2.2-.3.4-.3.7s0,.5.3.7.4.3.7.3.4,0,.5-.1c.2,0,.4-.2.6-.4v1.9c-.3,0-.5.1-.7.2-.2,0-.4,0-.6,0s-.5,0-.7,0-.4-.1-.6-.2c-.4-.3-.8-.6-1-1-.2-.4-.3-.9-.3-1.4s0-.7.2-1.1c.1-.3.3-.6.6-.9.3-.3.5-.4.9-.6.3-.1.7-.2,1.1-.2s.4,0,.6,0,.4.1.6.2v1.9h0Z"/>
    <path class="cls-2" d="M22.5,45c0,.4,0,.7-.2,1s-.3.6-.6.9c-.3.2-.5.4-.9.6-.3.1-.7.2-1.1.2s-.7,0-1.1-.2-.6-.3-.9-.6c-.3-.2-.4-.5-.6-.8s-.2-.7-.2-1,0-.7.2-1c.1-.3.3-.6.6-.9.3-.3.5-.4.9-.6.3-.1.7-.2,1.1-.2s.7,0,1.1.2.6.3.9.6c.3.2.4.5.6.9.1.3.2.7.2,1h0ZM19.8,46c.3,0,.5,0,.6-.3s.2-.4.2-.7,0-.5-.2-.7-.4-.3-.6-.3-.5,0-.6.3c-.2.2-.2.4-.2.7s0,.5.2.7c.2.2.4.3.6.3Z"/>
    <g>
      <path class="cls-2" d="M23.3,47.6v-5.1h1.8l1.6,2.7c0-.1,0-.2,0-.4,0-.1,0-.3,0-.6v-1.7h1.8v5.1h-1.8l-1.6-2.6c0,.1,0,.2,0,.4,0,.1,0,.3,0,.4v1.8h-1.8Z"/>
      <path class="cls-2" d="M26.7,47.6v-5.1h1.8l1.6,2.7c0-.1,0-.2,0-.4,0-.1,0-.3,0-.6v-1.7h1.8v5.1h-1.8l-1.6-2.6c0,.1,0,.2,0,.4s0,.3,0,.4v1.8h-1.8Z"/>
    </g>
    <path class="cls-2" d="M32.8,47.6v-5.1h3.4v1.4h-1.6v.5h1.5v1.3h-1.5v.5h1.6v1.4h-3.4Z"/>
    <path class="cls-2" d="M40.7,44.5c-.2-.2-.3-.3-.5-.4-.2,0-.4-.1-.5-.1-.3,0-.5,0-.7.3-.2.2-.3.4-.3.7s0,.5.3.7.4.3.7.3.4,0,.5-.1c.2,0,.4-.2.6-.4v1.9c-.3,0-.5.1-.7.2-.2,0-.4,0-.6,0s-.5,0-.7,0-.4-.1-.6-.2c-.4-.3-.8-.6-1-1-.2-.4-.3-.9-.3-1.4s0-.7.2-1.1c.1-.3.3-.6.6-.9.3-.3.5-.4.9-.6s.7-.2,1.1-.2.4,0,.6,0,.4.1.6.2v1.9h0Z"/>
    <path class="cls-2" d="M42.2,47.6v-3.4h-1v-1.7h3.9v1.7h-1v3.4h-1.8Z"/>
  </g>
</svg>