<?xml version="1.0" encoding="UTF-8"?>
<svg id="Calque_1" data-name="Calque 1" xmlns="http://www.w3.org/2000/svg" xmlns:xlink="http://www.w3.org/1999/xlink" viewBox="0 0 247.54 61.34">
  <defs>
    <style>
      .cls-1 {
        fill: #0d0c0c;
      }

      .cls-1, .cls-2 {
        stroke-width: 0px;
      }

      .cls-2 {
        fill: url(#Dégradé_sans_nom_4);
      }
    </style>
    <linearGradient id="Dégradé_sans_nom_4" data-name="Dégradé sans nom 4" x1="10.86" y1="30.33" x2="25.21" y2="30.33" gradientUnits="userSpaceOnUse">
      <stop offset="0" stop-color="#26a2b7"/>
      <stop offset="1" stop-color="#22c55e"/>
    </linearGradient>
  </defs>
  <g>
    <g>
      <g>
        <path class="cls-1" d="M23.45,21.37c.21,0,.42-.08.58-.22,2.25-1.91,5.16-3.07,8.34-3.07,2.79,0,5.44.87,7.67,2.53,1.18.88,2.84.87,3.9-.14,1.37-1.3,1.2-3.45-.25-4.54-3.29-2.48-7.2-3.79-11.33-3.79-6.27,0-11.84,3.08-15.26,7.82-.42.59,0,1.41.73,1.41h5.62Z"/>
        <path class="cls-1" d="M58.25,24.65c-1.19-1.13-3.06-1.09-4.2.1-.59.62-1.72,2.03-3.65,4.45-3.01,3.78-8.05,10.11-10.02,11.7-1.93,1.55-4.24,2.99-8.01,2.99s-7.14-1.62-9.5-4.19c-.17-.19-.41-.3-.66-.3h-5.17c-.69,0-1.13.76-.77,1.35,3.31,5.43,9.28,9.07,16.1,9.07,5.66,0,9.25-2.3,11.73-4.3,2.3-1.85,6.32-6.81,10.95-12.62,1.41-1.77,2.86-3.59,3.3-4.05,1.13-1.19,1.09-3.06-.1-4.2Z"/>
      </g>
      <circle class="cls-2" cx="18.03" cy="30.33" r="7.18"/>
    </g>
    <g>
      <path class="cls-1" d="M70.72,40.6c-.21,0-.42.08-.58.22-2.25,1.91-5.16,3.07-8.34,3.07-2.79,0-5.44-.87-7.67-2.53-1.18-.88-2.84-.87-3.9.14-1.37,1.3-1.2,3.45.25,4.54,3.29,2.48,7.2,3.79,11.33,3.79,6.27,0,11.84-3.08,15.26-7.82.42-.59,0-1.41-.73-1.41h-5.62Z"/>
      <path class="cls-1" d="M35.92,37.32c1.19,1.13,3.06,1.09,4.2-.1.59-.62,1.72-2.03,3.65-4.45,3.01-3.78,8.05-10.11,10.02-11.7,1.93-1.55,4.24-2.99,8.01-2.99s7.14,1.62,9.5,4.19c.17.19.41.3.66.3h5.17c.69,0,1.13-.76.77-1.35-3.31-5.43-9.28-9.07-16.1-9.07-5.66,0-9.25,2.3-11.73,4.3-2.3,1.85-6.32,6.81-10.95,12.62-1.41,1.77-2.86,3.59-3.3,4.05-1.13,1.19-1.09,3.06.1,4.2Z"/>
    </g>
  </g>
  <g>
    <path class="cls-1" d="M97.85,31.37c-.75-.71-1.51-1.25-2.28-1.6-.78-.35-1.59-.53-2.45-.53-1.34,0-2.41.41-3.22,1.24-.81.82-1.22,1.92-1.22,3.29s.39,2.4,1.17,3.2c.78.8,1.82,1.2,3.12,1.2.79,0,1.59-.17,2.4-.5.81-.34,1.7-.87,2.66-1.61l-.26,8.56c-.89.36-1.78.63-2.67.82-.89.18-1.78.27-2.67.27-1.11,0-2.17-.12-3.2-.37-1.03-.25-1.95-.6-2.78-1.06-2.01-1.16-3.53-2.63-4.56-4.4-1.03-1.77-1.55-3.81-1.55-6.1,0-1.7.29-3.27.88-4.72.59-1.45,1.44-2.73,2.56-3.84,1.13-1.12,2.44-1.97,3.92-2.54,1.49-.57,3.09-.86,4.82-.86.92,0,1.83.1,2.73.29.9.19,1.77.48,2.62.86v8.42Z"/>
    <path class="cls-1" d="M124.97,33.76c0,1.67-.3,3.22-.89,4.65-.59,1.43-1.46,2.72-2.59,3.84-1.14,1.11-2.45,1.96-3.94,2.55-1.49.59-3.07.89-4.75.89s-3.29-.3-4.77-.89-2.8-1.45-3.95-2.58c-1.13-1.1-1.98-2.36-2.56-3.79-.58-1.43-.87-2.99-.87-4.68s.29-3.25.87-4.69c.58-1.44,1.43-2.71,2.56-3.81,1.14-1.12,2.45-1.97,3.93-2.56,1.48-.58,3.08-.88,4.78-.88s3.3.29,4.78.88c1.48.59,2.8,1.44,3.95,2.56,1.12,1.11,1.97,2.38,2.56,3.82.58,1.44.88,3,.88,4.68ZM112.81,38.05c1.15,0,2.07-.39,2.77-1.17.7-.78,1.05-1.82,1.05-3.11s-.35-2.35-1.05-3.15-1.62-1.19-2.77-1.19-2.08.4-2.78,1.2c-.7.8-1.06,1.84-1.06,3.14s.35,2.33,1.06,3.11c.7.78,1.63,1.17,2.78,1.17Z"/>
    <g>
      <path class="cls-1" d="M128.4,45.08v-22.74h8.02l7.07,11.9c-.09-.53-.16-1.11-.19-1.76-.04-.64-.05-1.48-.05-2.52v-7.63h7.88v22.74h-8.08l-6.99-11.81c.08.51.14,1.05.19,1.64.04.59.06,1.24.06,1.97v8.2h-7.89Z"/>
      <path class="cls-1" d="M143.42,45.08v-22.74h8.02l7.07,11.9c-.09-.53-.16-1.11-.19-1.76-.04-.64-.05-1.48-.05-2.52v-7.63h7.88v22.74h-8.08l-6.99-11.81c.08.51.15,1.05.19,1.64.04.59.06,1.24.06,1.97v8.2h-7.89Z"/>
    </g>
    <path class="cls-1" d="M170.95,45.08v-22.74h15.21v6.17h-7.19v2.19h6.52v5.83h-6.52v2.39h7.38v6.17h-15.39Z"/>
    <path class="cls-1" d="M206.38,31.37c-.75-.71-1.51-1.25-2.28-1.6-.78-.35-1.59-.53-2.45-.53-1.34,0-2.41.41-3.22,1.24-.81.82-1.22,1.92-1.22,3.29s.39,2.4,1.17,3.2c.78.8,1.82,1.2,3.12,1.2.79,0,1.59-.17,2.4-.5.81-.34,1.7-.87,2.66-1.61l-.26,8.56c-.89.36-1.78.63-2.67.82-.89.18-1.78.27-2.67.27-1.11,0-2.17-.12-3.2-.37-1.03-.25-1.95-.6-2.78-1.06-2.01-1.16-3.53-2.63-4.56-4.4-1.03-1.77-1.55-3.81-1.55-6.1,0-1.7.29-3.27.88-4.72.58-1.45,1.44-2.73,2.56-3.84,1.13-1.12,2.44-1.97,3.92-2.54s3.09-.86,4.82-.86c.92,0,1.83.1,2.73.29.9.19,1.77.48,2.62.86v8.42Z"/>
    <path class="cls-1" d="M212.92,45.08v-15.3h-4.55v-7.44h17.27v7.44h-4.55v15.3h-8.17Z"/>
  </g>
</svg>