<?xml version="1.0" encoding="UTF-8"?>
<svg id="Calque_1" data-name="Calque 1" xmlns="http://www.w3.org/2000/svg" xmlns:xlink="http://www.w3.org/1999/xlink" version="1.1" viewBox="0 0 359.2 41.5">
  <defs>
    <style>
      .cls-1 {
        fill: url(#linear-gradient);
      }

      .cls-1, .cls-2, .cls-3 {
        stroke-width: 0px;
      }

      .cls-2 {
        fill: #fff;
      }

      .cls-3 {
        fill: #fcfcfc;
      }
    </style>
    <linearGradient id="linear-gradient" x1="7.6" y1="18.5" x2="23.3" y2="18.5" gradientTransform="translate(0 38.5) scale(1 -1)" gradientUnits="userSpaceOnUse">
      <stop offset="0" stop-color="#26a2b7"/>
      <stop offset="1" stop-color="#22c55e"/>
    </linearGradient>
  </defs>
  <g>
    <path class="cls-2" d="M21.4,10.2c.2,0,.5,0,.6-.2,2.5-2.1,5.7-3.4,9.2-3.4s6,1,8.4,2.8c1.3,1,3.1,1,4.3-.2,1.5-1.4,1.3-3.8-.3-5C40,1.5,35.7,0,31.2,0,24.3,0,18.2,3.5,14.4,8.7c-.5.6,0,1.5.8,1.5,0,0,6.2,0,6.2,0Z"/>
    <path class="cls-2" d="M59.6,13.8c-1.3-1.2-3.4-1.2-4.6.1-.6.7-1.9,2.2-4,4.9-3.3,4.1-8.8,11.1-11,12.8-2.1,1.7-4.7,3.3-8.8,3.3s-7.8-1.8-10.4-4.6c-.2-.2-.5-.3-.7-.3h-5.7c-.8,0-1.2.8-.8,1.5,3.6,6,10.2,10,17.7,10s10.2-2.5,12.9-4.7c2.5-2,6.9-7.5,12-13.9,1.5-1.9,3.1-3.9,3.6-4.4,1.2-1.3,1.2-3.4-.1-4.6Z"/>
  </g>
  <circle class="cls-1" cx="15.5" cy="20.1" r="7.9"/>
  <g>
    <path class="cls-2" d="M73.3,31.3c-.2,0-.5,0-.6.2-2.5,2.1-5.7,3.4-9.2,3.4s-6-1-8.4-2.8c-1.3-1-3.1-1-4.3.2-1.5,1.4-1.3,3.8.3,5,3.6,2.7,7.9,4.2,12.4,4.2,6.9,0,13-3.4,16.7-8.6.5-.6,0-1.5-.8-1.5,0,0-6.2,0-6.2,0Z"/>
    <path class="cls-2" d="M35.1,27.7c1.3,1.2,3.4,1.2,4.6-.1.6-.7,1.9-2.2,4-4.9,3.3-4.1,8.8-11.1,11-12.8,2.1-1.7,4.7-3.3,8.8-3.3s7.8,1.8,10.4,4.6c.2.2.5.3.7.3h5.7c.8,0,1.2-.8.8-1.5C77.5,4.1,71,0,63.5,0s-10.2,2.5-12.9,4.7c-2.5,2-6.9,7.5-12,13.9-1.5,1.9-3.1,3.9-3.6,4.4-1.2,1.3-1.2,3.4.1,4.6Z"/>
  </g>
  <g>
    <path class="cls-3" d="M121.4,16.6c-1.3-1.2-2.6-2.2-4-2.8-1.4-.6-2.8-.9-4.3-.9-2.3,0-4.2.7-5.6,2.2-1.4,1.4-2.1,3.3-2.1,5.7s.7,4.2,2,5.6,3.2,2.1,5.4,2.1,2.8-.3,4.2-.9c1.4-.6,3-1.5,4.6-2.8l-.5,14.9c-1.5.6-3.1,1.1-4.6,1.4-1.5.3-3.1.5-4.6.5s-3.8-.2-5.6-.6-3.4-1-4.8-1.8c-3.5-2-6.1-4.6-7.9-7.6s-2.7-6.6-2.7-10.6.5-5.7,1.5-8.2c1-2.5,2.5-4.7,4.4-6.7,2-1.9,4.2-3.4,6.8-4.4,2.6-1,5.4-1.5,8.4-1.5s3.2.2,4.7.5,3.1.8,4.5,1.5v14.6h0Z"/>
    <path class="cls-3" d="M168.5,20.7c0,2.9-.5,5.6-1.5,8.1s-2.5,4.7-4.5,6.7c-2,1.9-4.3,3.4-6.8,4.4-2.6,1-5.3,1.5-8.2,1.5s-5.7-.5-8.3-1.5-4.9-2.5-6.9-4.5c-2-1.9-3.4-4.1-4.4-6.6-1-2.5-1.5-5.2-1.5-8.1s.5-5.6,1.5-8.1,2.5-4.7,4.4-6.6c2-1.9,4.3-3.4,6.8-4.4,2.6-1,5.3-1.5,8.3-1.5s5.7.5,8.3,1.5c2.6,1,4.9,2.5,6.9,4.4,1.9,1.9,3.4,4.1,4.4,6.6,1,2.5,1.5,5.2,1.5,8.1h0ZM147.4,28.2c2,0,3.6-.7,4.8-2s1.8-3.2,1.8-5.4-.6-4.1-1.8-5.5-2.8-2.1-4.8-2.1-3.6.7-4.8,2.1c-1.2,1.4-1.8,3.2-1.8,5.5s.6,4,1.8,5.4c1.2,1.4,2.8,2,4.8,2Z"/>
    <g>
      <path class="cls-3" d="M174.5,40.4V.9h13.9l12.3,20.7c-.2-.9-.3-1.9-.3-3.1,0-1.1,0-2.6,0-4.4V.9h13.7v39.5h-14l-12.1-20.5c.1.9.2,1.8.3,2.8,0,1,.1,2.2.1,3.4v14.2h-13.7Z"/>
      <path class="cls-3" d="M200.5,40.4V.9h13.9l12.3,20.7c-.2-.9-.3-1.9-.3-3.1,0-1.1,0-2.6,0-4.4V.9h13.7v39.5h-14l-12.1-20.5c.1.9.3,1.8.3,2.8,0,1,.1,2.2.1,3.4v14.2h-13.7Z"/>
    </g>
    <path class="cls-3" d="M248.3,40.4V.9h26.4v10.7h-12.5v3.8h11.3v10.1h-11.3v4.1h12.8v10.7h-26.7Z"/>
    <path class="cls-3" d="M309.8,16.6c-1.3-1.2-2.6-2.2-4-2.8-1.4-.6-2.8-.9-4.3-.9-2.3,0-4.2.7-5.6,2.2-1.4,1.4-2.1,3.3-2.1,5.7s.7,4.2,2,5.6,3.2,2.1,5.4,2.1,2.8-.3,4.2-.9c1.4-.6,3-1.5,4.6-2.8l-.5,14.9c-1.5.6-3.1,1.1-4.6,1.4-1.5.3-3.1.5-4.6.5s-3.8-.2-5.6-.6-3.4-1-4.8-1.8c-3.5-2-6.1-4.6-7.9-7.6s-2.7-6.6-2.7-10.6.5-5.7,1.5-8.2c1-2.5,2.5-4.7,4.4-6.7,2-1.9,4.2-3.4,6.8-4.4S297.6,0,300.6,0s3.2.2,4.7.5,3.1.8,4.5,1.5v14.6h0Z"/>
    <path class="cls-3" d="M321.2,40.4V13.8h-7.9V.9h30v12.9h-7.9v26.6h-14.2Z"/>
  </g>
</svg>