<?xml version="1.0" encoding="UTF-8"?>
<svg id="Layer_1" data-name="Layer 1" xmlns="http://www.w3.org/2000/svg" version="1.1" viewBox="0 0 32 32">
  <defs>
    <style>
      .cls-1 {
        opacity: .9;
      }

      .cls-2 {
        opacity: .7;
      }

      .cls-3 {
        fill: #3c50e0;
      }

      .cls-3, .cls-4 {
        stroke-width: 0px;
      }

      .cls-4 {
        fill: #fff;
      }
    </style>
  </defs>
  <path class="cls-3" d="M0,8.4C0,3.8,3.8,0,8.4,0h15.2C28.2,0,32,3.8,32,8.4v15.2c0,4.7-3.8,8.4-8.4,8.4h-15.2c-4.7,0-8.4-3.8-8.4-8.4v-15.2Z"/>
  <path class="cls-4" d="M8.4,8.4c0-.9.8-1.7,1.7-1.7h0c.9,0,1.7.8,1.7,1.7v15.2c0,.9-.8,1.7-1.7,1.7h0c-.9,0-1.7-.8-1.7-1.7v-15.2Z"/>
  <g class="cls-1">
    <path class="cls-4" d="M14.7,15.2c0-.9.8-1.7,1.7-1.7h0c.9,0,1.7.8,1.7,1.7v8.4c0,.9-.8,1.7-1.7,1.7h0c-.9,0-1.7-.8-1.7-1.7v-8.4Z"/>
  </g>
  <g class="cls-2">
    <path class="cls-4" d="M21.1,10.9c0-.9.8-1.7,1.7-1.7h0c.9,0,1.7.8,1.7,1.7v12.6c0,.9-.8,1.7-1.7,1.7h0c-.9,0-1.7-.8-1.7-1.7v-12.6Z"/>
  </g>
</svg>